# xmcd
#
# Track frame offsets:
#	150
#	12098
#	25386
#	39009
#	53081
#	65596
#	78111
#	90563
#	103211
#	114036
#	128756
#	140293
#	151528
#	162621
#
# Disc length: 2402 seconds
#
# Revision: 2
# Processed by: cddbd v1.5.2PL0 Copyright (c) Steve Scherf et al.
# Submitted via: EasyCDDAExtractor 16.0.1.1
#
DISCID=9d09600e
DTITLE=The Eddie Adcock Band - Dixie Fried
DYEAR=1991
DGENRE=Bluegrass
TTITLE0=Dixie Fried
TTITLE1=Dog
TTITLE2=Bootlegger
TTITLE3=Tender Lie
TTITLE4=Jealous Heart
TTITLE5=Midnight Rider
TTITLE6=She Used To Love Me A Lot
TTITLE7=Tonight I'll Be Staying Here With You
TTITLE8=Between Fire And Water
TTITLE9=Birmingham Bounce
TTITLE10=Didn't You
TTITLE11=Bluegrass Morning
TTITLE12=Will There Ever Be Another
TTITLE13=Dixie In My Eye
EXTD=
EXTT0=
EXTT1=
EXTT2=
EXTT3=
EXTT4=
EXTT5=
EXTT6=
EXTT7=
EXTT8=
EXTT9=
EXTT10=
EXTT11=
EXTT12=
EXTT13=
PLAYORDER=
